<svg width="1813" height="505" viewBox="0 0 1813 505" fill="none" xmlns="http://www.w3.org/2000/svg">
<path d="M707.356 229.173V162.966H658.046V229.173H624.943V84.6906H658.046V143.656H707.356V84.6906H740.805V229.173H707.356ZM834.896 209.863C844.091 209.863 848.689 206.645 848.689 200.208V113.656C848.689 107.219 844.091 104.001 834.896 104.001H819.723C810.298 104.001 805.585 107.219 805.585 113.656V200.208C805.585 206.645 810.298 209.863 819.723 209.863H834.896ZM772.482 110.553C772.482 102.737 776.39 96.5297 784.206 91.932C792.252 87.1044 801.907 84.6906 813.171 84.6906H841.447C859.148 84.6906 871.562 89.6331 878.689 99.5182C880.987 102.737 882.137 106.415 882.137 110.553V203.311C882.137 211.127 878.114 217.449 870.068 222.277C862.252 226.874 852.712 229.173 841.447 229.173H813.171C795.47 229.173 783.056 224.231 775.93 214.346C773.631 211.127 772.482 207.449 772.482 203.311V110.553ZM975.867 145.725C985.293 145.725 990.005 142.507 990.005 136.07V113.656C990.005 107.219 985.293 104.001 975.867 104.001H949.316V145.725H975.867ZM983.109 165.035L1030.69 229.173H995.867L949.316 166.415V229.173H916.212V84.6906H982.764C993.798 84.6906 1003.22 86.9894 1011.04 91.5871C1019.09 96.1848 1023.11 102.507 1023.11 110.553V139.173C1023.11 147.219 1019.2 153.541 1011.38 158.139C1003.57 162.737 994.143 165.035 983.109 165.035ZM1053.62 229.173V84.6906H1086.72V229.173H1053.62ZM1116.04 84.6906H1222.25V102.622L1150.52 209.863H1221.9V229.173H1115.35V211.242L1187.42 104.001H1116.04V84.6906ZM1313.43 209.863C1322.63 209.863 1327.22 206.645 1327.22 200.208V113.656C1327.22 107.219 1322.63 104.001 1313.43 104.001H1298.26C1288.83 104.001 1284.12 107.219 1284.12 113.656V200.208C1284.12 206.645 1288.83 209.863 1298.26 209.863H1313.43ZM1251.02 110.553C1251.02 102.737 1254.92 96.5297 1262.74 91.932C1270.79 87.1044 1280.44 84.6906 1291.71 84.6906H1319.98C1337.68 84.6906 1350.1 89.6331 1357.22 99.5182C1359.52 102.737 1360.67 106.415 1360.67 110.553V203.311C1360.67 211.127 1356.65 217.449 1348.6 222.277C1340.79 226.874 1331.25 229.173 1319.98 229.173H1291.71C1274.01 229.173 1261.59 224.231 1254.47 214.346C1252.17 211.127 1251.02 207.449 1251.02 203.311V110.553ZM1394.75 229.173V84.6906H1428.89L1480.61 172.966V85.0354H1514.06V229.173H1479.23L1427.85 142.277V229.173H1394.75ZM841.396 426.725H891.396L866.568 362.587L841.396 426.725ZM890.361 335.691L943.12 480.173H910.016L897.947 446.035H834.844L823.12 480.173H790.016L842.43 335.691H890.361ZM1026.58 396.725C1036.01 396.725 1040.72 393.507 1040.72 387.07V364.656C1040.72 358.219 1036.01 355.001 1026.58 355.001H1000.03V396.725H1026.58ZM1033.82 416.035L1081.41 480.173H1046.58L1000.03 417.415V480.173H966.925V335.691H1033.48C1044.51 335.691 1053.94 337.989 1061.75 342.587C1069.8 347.185 1073.82 353.507 1073.82 361.553V390.173C1073.82 398.219 1069.91 404.541 1062.1 409.139C1054.28 413.737 1044.86 416.035 1033.82 416.035ZM1158.81 460.863C1168.01 460.863 1172.61 457.645 1172.61 451.208V435.001H1205.71V454.311C1205.71 462.357 1201.57 468.679 1193.3 473.277C1185.71 477.874 1176.4 480.173 1165.37 480.173H1142.26C1124.56 480.173 1112.15 475.231 1105.02 465.346C1102.72 462.127 1101.57 458.449 1101.57 454.311V361.553C1101.57 353.737 1105.48 347.53 1113.3 342.932C1121.34 338.104 1131 335.691 1142.26 335.691H1165.37C1176.4 335.691 1185.83 337.989 1193.64 342.587C1201.69 347.185 1205.71 353.507 1205.71 361.553V380.863H1172.61V364.656C1172.61 358.219 1168.01 355.001 1158.81 355.001H1148.81C1139.39 355.001 1134.68 358.219 1134.68 364.656V451.208C1134.68 457.645 1139.39 460.863 1148.81 460.863H1158.81ZM1318.64 480.173V413.966H1269.33V480.173H1236.22V335.691H1269.33V394.656H1318.64V335.691H1352.08V480.173H1318.64Z" fill="white"/>
<path d="M132.243 385.873V409.106L230.205 503.173V406.84L174.733 354.706V377.373L213.682 414.773V463.507L132.243 385.873Z" fill="white"/>
<path d="M123.4 367.104H99.2046L1.24335 273.036H101.565L155.857 326.303H132.252L93.3033 288.903H42.5523L123.4 367.104Z" fill="white"/>
<path d="M123.399 137.677H99.2034L1.24219 231.745H101.564L155.856 178.477H132.251L93.3022 215.878H42.5511L123.399 137.677Z" fill="white"/>
<path d="M132.242 118.474V95.2403L230.204 1.17334V97.507L174.732 149.641V126.974L213.68 89.5736V40.8401L132.242 118.474Z" fill="white"/>
<path d="M186.547 265.944V281.518L252.211 344.571V279.998L215.028 245.053V260.247L241.135 285.316V317.982L186.547 265.944Z" fill="white"/>
<path d="M186.547 238.579V223.005L252.211 159.952V224.525L215.028 259.47V244.276L241.135 219.207V186.541L186.547 238.579Z" fill="white"/>
<path d="M237.593 314.955H221.375L155.711 251.901H222.957L259.349 287.606H243.526L217.419 262.536H183.401L237.593 314.955Z" fill="white"/>
<path d="M238.188 189.08H221.97L156.306 252.134H223.552L259.944 216.429H244.121L218.014 241.499H183.996L238.188 189.08Z" fill="white"/>
<path d="M372.241 385.873V409.106L274.279 503.173V406.839L329.752 354.706V377.373L290.803 414.773V463.506L372.241 385.873Z" fill="white"/>
<path d="M381.085 367.104H405.28L503.241 273.036H402.919L348.627 326.303H372.233L411.181 288.903H461.932L381.085 367.104Z" fill="white"/>
<path d="M381.086 137.677H405.281L503.242 231.745H402.92L348.629 178.477H372.234L411.182 215.878H461.933L381.086 137.677Z" fill="white"/>
<path d="M372.242 118.474V95.2403L274.28 1.17334V97.507L329.753 149.641V126.974L290.804 89.5736V40.8401L372.242 118.474Z" fill="white"/>
<path d="M317.938 265.944V281.518L252.273 344.571V279.998L289.457 245.053V260.247L263.349 285.316V317.982L317.938 265.944Z" fill="white"/>
<path d="M317.938 238.579V223.005L252.273 159.952V224.525L289.457 259.47V244.276L263.349 219.207V186.541L317.938 238.579Z" fill="white"/>
<path d="M266.891 314.954H283.11L348.773 251.9H281.527L245.135 287.606H260.958L287.065 262.536H321.084L266.891 314.954Z" fill="white"/>
<path d="M266.297 189.08H282.515L348.178 252.134H280.933L244.541 216.429H260.363L286.47 241.499H320.489L266.297 189.08Z" fill="white"/>
<path d="M132.243 385.873V409.106L230.205 503.173V406.84L174.733 354.706V377.373L213.682 414.773V463.507L132.243 385.873Z" stroke="white"/>
<path d="M123.4 367.104H99.2046L1.24335 273.036H101.565L155.857 326.303H132.252L93.3033 288.903H42.5523L123.4 367.104Z" stroke="white"/>
<path d="M123.399 137.677H99.2034L1.24219 231.745H101.564L155.856 178.477H132.251L93.3022 215.878H42.5511L123.399 137.677Z" stroke="white"/>
<path d="M132.242 118.474V95.2403L230.204 1.17334V97.507L174.732 149.641V126.974L213.68 89.5736V40.8401L132.242 118.474Z" stroke="white"/>
<path d="M186.547 265.944V281.518L252.211 344.571V279.998L215.028 245.053V260.247L241.135 285.316V317.982L186.547 265.944Z" stroke="white"/>
<path d="M186.547 238.579V223.005L252.211 159.952V224.525L215.028 259.47V244.276L241.135 219.207V186.541L186.547 238.579Z" stroke="white"/>
<path d="M237.593 314.955H221.375L155.711 251.901H222.957L259.349 287.606H243.526L217.419 262.536H183.401L237.593 314.955Z" stroke="white"/>
<path d="M238.188 189.08H221.97L156.306 252.134H223.552L259.944 216.429H244.121L218.014 241.499H183.996L238.188 189.08Z" stroke="white"/>
<path d="M372.241 385.873V409.106L274.279 503.173V406.839L329.752 354.706V377.373L290.803 414.773V463.506L372.241 385.873Z" stroke="white"/>
<path d="M381.085 367.104H405.28L503.241 273.036H402.919L348.627 326.303H372.233L411.181 288.903H461.932L381.085 367.104Z" stroke="white"/>
<path d="M381.086 137.677H405.281L503.242 231.745H402.92L348.629 178.477H372.234L411.182 215.878H461.933L381.086 137.677Z" stroke="white"/>
<path d="M372.242 118.474V95.2403L274.28 1.17334V97.507L329.753 149.641V126.974L290.804 89.5736V40.8401L372.242 118.474Z" stroke="white"/>
<path d="M317.938 265.944V281.518L252.273 344.571V279.998L289.457 245.053V260.247L263.349 285.316V317.982L317.938 265.944Z" stroke="white"/>
<path d="M317.938 238.579V223.005L252.273 159.952V224.525L289.457 259.47V244.276L263.349 219.207V186.541L317.938 238.579Z" stroke="white"/>
<path d="M266.891 314.954H283.11L348.773 251.9H281.527L245.135 287.606H260.958L287.065 262.536H321.084L266.891 314.954Z" stroke="white"/>
<path d="M266.297 189.08H282.515L348.178 252.134H280.933L244.541 216.429H260.363L286.47 241.499H320.489L266.297 189.08Z" stroke="white"/>
</svg>
