<svg width="5000" height="5000" viewBox="0 0 5000 5000" fill="none" xmlns="http://www.w3.org/2000/svg">
<path d="M1782.87 3299V3437.85L2368.31 4000V3424.3L2036.8 3112.75V3248.2L2269.56 3471.71V3762.95L1782.87 3299Z" fill="white"/>
<path d="M1730.03 3186.84H1585.43L1000.01 2624.68H1599.54L1923.99 2943.01H1782.93L1550.17 2719.5H1246.87L1730.03 3186.84Z" fill="white"/>
<path d="M1730.02 1815.76H1585.43L1000 2377.92H1599.53L1923.99 2059.59H1782.92L1550.16 2283.1H1246.87L1730.02 1815.76Z" fill="white"/>
<path d="M1782.87 1701V1562.15L2368.3 1000V1575.7L2036.79 1887.25V1751.8L2269.55 1528.29V1237.05L1782.87 1701Z" fill="white"/>
<path d="M2107.4 2582.3V2675.36L2499.81 3052.18V2666.28L2277.6 2457.45V2548.25L2433.62 2698.06V2893.28L2107.4 2582.3Z" fill="white"/>
<path d="M2107.4 2418.76V2325.69L2499.81 1948.88V2334.77L2277.6 2543.61V2452.81L2433.62 2302.99V2107.77L2107.4 2418.76Z" fill="white"/>
<path d="M2412.45 2875.19H2315.53L1923.12 2498.37H2324.99L2542.47 2711.75H2447.91L2291.89 2561.93H2088.6L2412.45 2875.19Z" fill="white"/>
<path d="M2416.01 2122.95H2319.09L1926.68 2499.77H2328.54L2546.03 2286.39H2451.47L2295.45 2436.21H2092.15L2416.01 2122.95Z" fill="white"/>
<path d="M3217.13 3299V3437.85L2631.69 4000V3424.3L2963.2 3112.74V3248.2L2730.44 3471.71V3762.95L3217.13 3299Z" fill="white"/>
<path d="M3269.97 3186.83H3414.57L3999.99 2624.68H3400.46L3076.01 2943.01H3217.07L3449.83 2719.5H3753.13L3269.97 3186.83Z" fill="white"/>
<path d="M3269.98 1815.76H3414.57L4000 2377.92H3400.47L3076.01 2059.59H3217.08L3449.84 2283.1H3753.13L3269.98 1815.76Z" fill="white"/>
<path d="M3217.13 1701V1562.15L2631.7 1000V1575.7L2963.21 1887.25V1751.8L2730.45 1528.29V1237.05L3217.13 1701Z" fill="white"/>
<path d="M2892.6 2582.3V2675.36L2500.19 3052.18V2666.28L2722.4 2457.45V2548.25L2566.38 2698.06V2893.28L2892.6 2582.3Z" fill="white"/>
<path d="M2892.6 2418.76V2325.69L2500.19 1948.88V2334.77L2722.4 2543.61V2452.81L2566.38 2302.99V2107.77L2892.6 2418.76Z" fill="white"/>
<path d="M2587.55 2875.19H2684.47L3076.88 2498.37H2675.01L2457.53 2711.75H2552.09L2708.11 2561.93H2911.4L2587.55 2875.19Z" fill="white"/>
<path d="M2583.99 2122.95H2680.91L3073.32 2499.77H2671.46L2453.97 2286.39H2548.53L2704.55 2436.21H2907.85L2583.99 2122.95Z" fill="white"/>
<path d="M1782.87 3299V3437.85L2368.31 4000V3424.3L2036.8 3112.75V3248.2L2269.56 3471.71V3762.95L1782.87 3299Z" stroke="white"/>
<path d="M1730.03 3186.84H1585.43L1000.01 2624.68H1599.54L1923.99 2943.01H1782.93L1550.17 2719.5H1246.87L1730.03 3186.84Z" stroke="white"/>
<path d="M1730.02 1815.76H1585.43L1000 2377.92H1599.53L1923.99 2059.59H1782.92L1550.16 2283.1H1246.87L1730.02 1815.76Z" stroke="white"/>
<path d="M1782.87 1701V1562.15L2368.3 1000V1575.7L2036.79 1887.25V1751.8L2269.55 1528.29V1237.05L1782.87 1701Z" stroke="white"/>
<path d="M2107.4 2582.3V2675.36L2499.81 3052.18V2666.28L2277.6 2457.45V2548.25L2433.62 2698.06V2893.28L2107.4 2582.3Z" stroke="white"/>
<path d="M2107.4 2418.76V2325.69L2499.81 1948.88V2334.77L2277.6 2543.61V2452.81L2433.62 2302.99V2107.77L2107.4 2418.76Z" stroke="white"/>
<path d="M2412.45 2875.19H2315.53L1923.12 2498.37H2324.99L2542.47 2711.75H2447.91L2291.89 2561.93H2088.6L2412.45 2875.19Z" stroke="white"/>
<path d="M2416.01 2122.95H2319.09L1926.68 2499.77H2328.54L2546.03 2286.39H2451.47L2295.45 2436.21H2092.15L2416.01 2122.95Z" stroke="white"/>
<path d="M3217.13 3299V3437.85L2631.69 4000V3424.3L2963.2 3112.74V3248.2L2730.44 3471.71V3762.95L3217.13 3299Z" stroke="white"/>
<path d="M3269.97 3186.83H3414.57L3999.99 2624.68H3400.46L3076.01 2943.01H3217.07L3449.83 2719.5H3753.13L3269.97 3186.83Z" stroke="white"/>
<path d="M3269.98 1815.76H3414.57L4000 2377.92H3400.47L3076.01 2059.59H3217.08L3449.84 2283.1H3753.13L3269.98 1815.76Z" stroke="white"/>
<path d="M3217.13 1701V1562.15L2631.7 1000V1575.7L2963.21 1887.25V1751.8L2730.45 1528.29V1237.05L3217.13 1701Z" stroke="white"/>
<path d="M2892.6 2582.3V2675.36L2500.19 3052.18V2666.28L2722.4 2457.45V2548.25L2566.38 2698.06V2893.28L2892.6 2582.3Z" stroke="white"/>
<path d="M2892.6 2418.76V2325.69L2500.19 1948.88V2334.77L2722.4 2543.61V2452.81L2566.38 2302.99V2107.77L2892.6 2418.76Z" stroke="white"/>
<path d="M2587.55 2875.19H2684.47L3076.88 2498.37H2675.01L2457.53 2711.75H2552.09L2708.11 2561.93H2911.4L2587.55 2875.19Z" stroke="white"/>
<path d="M2583.99 2122.95H2680.91L3073.32 2499.77H2671.46L2453.97 2286.39H2548.53L2704.55 2436.21H2907.85L2583.99 2122.95Z" stroke="white"/>
</svg>
