<svg width="1727" height="1383" viewBox="0 0 1727 1383" fill="none" xmlns="http://www.w3.org/2000/svg">
<path d="M738 1104.81L720.5 1090.96L703 1104.02V759.46L720.5 741.46L738 759.46V1104.81Z" fill="white"/>
<path d="M738 760.46H720.5H703V1114.46L720.5 1132.46L738 1114.46V760.46Z" fill="white"/>
<path d="M1024 1104.81L1006.5 1090.96L989 1104.02V759.46L1006.5 741.46L1024 759.46V1104.81Z" fill="white"/>
<path d="M1024 760.46H1006.5H989V1114.46L1006.5 1132.46L1024 1114.46V760.46Z" fill="white"/>
<path d="M926 1283.46L872 1382.46H863.5H855L801 1283.46V707.46H17.8041L0 689.46L17.8041 671.46H837L837 1283.46L863.5 1319.46L890 1283.46L890 671.516L1709 671.46L1727 689.46L1709 707.46H926V1283.46Z" fill="white"/>
<path d="M863.5 290.46C1043.33 290.46 1189.92 432.798 1196.75 610.96H530.249C537.078 432.798 683.666 290.46 863.5 290.46Z" stroke="white" stroke-width="26"/>
<path d="M1210 624.42H863.5H517C517 433.053 672.133 277.92 863.5 277.92C1054.87 277.92 1210 433.053 1210 624.42Z" stroke="white" stroke-width="20"/>
<path d="M276.768 633.917L258.999 616.417L276.768 598.917H472.23L489.999 616.417L472.23 633.917H276.768Z" fill="white"/>
<path d="M1450.23 633.917L1468 616.417L1450.23 598.917H1254.77L1237 616.417L1254.77 633.917H1450.23Z" fill="white"/>
<path d="M314.733 408.053L305.013 385.085L328.127 375.717L508.709 450.517L518.429 473.485L495.316 482.853L314.733 408.053Z" fill="white"/>
<path d="M436.243 213.91L436.052 188.971L460.992 189.161L599.204 327.374L599.394 352.313L574.455 352.122L436.243 213.91Z" fill="white"/>
<path d="M622.798 81.0454L632.166 57.9318L655.134 67.6515L729.934 248.234L720.566 271.348L697.598 261.628L622.798 81.0454Z" fill="white"/>
<path d="M1412.27 408.053L1421.99 385.085L1398.87 375.717L1218.29 450.517L1208.57 473.485L1231.68 482.853L1412.27 408.053Z" fill="white"/>
<path d="M1290.76 213.91L1290.95 188.971L1266.01 189.161L1127.79 327.374L1127.6 352.313L1152.54 352.122L1290.76 213.91Z" fill="white"/>
<path d="M1104.2 81.0454L1094.83 57.9318L1071.86 67.6515L997.063 248.234L1006.43 271.348L1029.4 261.628L1104.2 81.0454Z" fill="white"/>
<path d="M881 213.231L863.5 231L846 213.231V17.7692L863.5 3.92106e-06L881 17.7692V213.231Z" fill="white"/>
</svg>
