<svg width="2000" height="2000" viewBox="0 0 2000 2000" fill="none" xmlns="http://www.w3.org/2000/svg">
<path d="M875 1413.81L857.5 1399.96L840 1413.02V1068.46L857.5 1050.46L875 1068.46V1413.81Z" fill="white"/>
<path d="M875 1069.46H857.5H840V1423.46L857.5 1441.46L875 1423.46V1069.46Z" fill="white"/>
<path d="M1161 1413.81L1143.5 1399.96L1126 1413.02V1068.46L1143.5 1050.46L1161 1068.46V1413.81Z" fill="white"/>
<path d="M1161 1069.46H1143.5H1126V1423.46L1143.5 1441.46L1161 1423.46V1069.46Z" fill="white"/>
<path d="M1063 1592.46L1009 1691.46H1000.5H992L938 1592.46V1016.46H154.804L137 998.46L154.804 980.46H974L974 1592.46L1000.5 1628.46L1027 1592.46L1027 980.516L1846 980.46L1864 998.46L1846 1016.46H1063V1592.46Z" fill="white"/>
<path d="M1000.5 599.46C1180.33 599.46 1326.92 741.798 1333.75 919.96H667.249C674.078 741.798 820.666 599.46 1000.5 599.46Z" stroke="white" stroke-width="26"/>
<path d="M1347 933.42H1000.5H654C654 742.053 809.133 586.92 1000.5 586.92C1191.87 586.92 1347 742.053 1347 933.42Z" stroke="white" stroke-width="20"/>
<path d="M413.769 942.917L395.999 925.417L413.769 907.917H609.23L626.999 925.417L609.23 942.917H413.769Z" fill="white"/>
<path d="M1587.23 942.917L1605 925.417L1587.23 907.917H1391.77L1374 925.417L1391.77 942.917H1587.23Z" fill="white"/>
<path d="M451.734 717.053L442.014 694.085L465.128 684.717L645.711 759.517L655.43 782.485L632.317 791.853L451.734 717.053Z" fill="white"/>
<path d="M573.244 522.91L573.053 497.971L597.992 498.161L736.205 636.374L736.395 661.313L711.456 661.122L573.244 522.91Z" fill="white"/>
<path d="M759.8 390.045L769.167 366.932L792.135 376.651L866.935 557.234L857.567 580.348L834.599 570.628L759.8 390.045Z" fill="white"/>
<path d="M1549.27 717.053L1558.99 694.085L1535.87 684.717L1355.29 759.517L1345.57 782.485L1368.68 791.853L1549.27 717.053Z" fill="white"/>
<path d="M1427.76 522.91L1427.95 497.971L1403.01 498.161L1264.79 636.374L1264.6 661.313L1289.54 661.122L1427.76 522.91Z" fill="white"/>
<path d="M1241.2 390.045L1231.83 366.932L1208.86 376.651L1134.06 557.234L1143.43 580.348L1166.4 570.628L1241.2 390.045Z" fill="white"/>
<path d="M1018 522.231L1000.5 540L983 522.231V326.769L1000.5 309L1018 326.769V522.231Z" fill="white"/>
</svg>
