<svg width="3000" height="3000" viewBox="0 0 3000 3000" fill="none" xmlns="http://www.w3.org/2000/svg">
<path d="M1374 1913.81L1356.5 1899.96L1339 1913.02V1568.46L1356.5 1550.46L1374 1568.46V1913.81Z" fill="white"/>
<path d="M1374 1569.46H1356.5H1339V1923.46L1356.5 1941.46L1374 1923.46V1569.46Z" fill="white"/>
<path d="M1660 1913.81L1642.5 1899.96L1625 1913.02V1568.46L1642.5 1550.46L1660 1568.46V1913.81Z" fill="white"/>
<path d="M1660 1569.46H1642.5H1625V1923.46L1642.5 1941.46L1660 1923.46V1569.46Z" fill="white"/>
<path d="M1562 2092.46L1508 2191.46H1499.5H1491L1437 2092.46V1516.46H653.804L636 1498.46L653.804 1480.46H1473L1473 2092.46L1499.5 2128.46L1526 2092.46L1526 1480.52L2345 1480.46L2363 1498.46L2345 1516.46H1562V2092.46Z" fill="white"/>
<path d="M1499.5 1099.46C1679.33 1099.46 1825.92 1241.8 1832.75 1419.96H1166.25C1173.08 1241.8 1319.67 1099.46 1499.5 1099.46Z" stroke="white" stroke-width="26"/>
<path d="M1846 1433.42H1499.5H1153C1153 1242.05 1308.13 1086.92 1499.5 1086.92C1690.87 1086.92 1846 1242.05 1846 1433.42Z" stroke="white" stroke-width="20"/>
<path d="M912.769 1442.92L894.999 1425.42L912.769 1407.92H1108.23L1126 1425.42L1108.23 1442.92H912.769Z" fill="white"/>
<path d="M2086.23 1442.92L2104 1425.42L2086.23 1407.92H1890.77L1873 1425.42L1890.77 1442.92H2086.23Z" fill="white"/>
<path d="M950.734 1217.05L941.014 1194.09L964.128 1184.72L1144.71 1259.52L1154.43 1282.48L1131.32 1291.85L950.734 1217.05Z" fill="white"/>
<path d="M1072.24 1022.91L1072.05 997.971L1096.99 998.161L1235.2 1136.37L1235.4 1161.31L1210.46 1161.12L1072.24 1022.91Z" fill="white"/>
<path d="M1258.8 890.045L1268.17 866.932L1291.14 876.651L1365.94 1057.23L1356.57 1080.35L1333.6 1070.63L1258.8 890.045Z" fill="white"/>
<path d="M2048.27 1217.05L2057.99 1194.09L2034.87 1184.72L1854.29 1259.52L1844.57 1282.48L1867.68 1291.85L2048.27 1217.05Z" fill="white"/>
<path d="M1926.76 1022.91L1926.95 997.971L1902.01 998.161L1763.79 1136.37L1763.6 1161.31L1788.54 1161.12L1926.76 1022.91Z" fill="white"/>
<path d="M1740.2 890.045L1730.83 866.932L1707.86 876.651L1633.06 1057.23L1642.43 1080.35L1665.4 1070.63L1740.2 890.045Z" fill="white"/>
<path d="M1517 1022.23L1499.5 1040L1482 1022.23V826.769L1499.5 809L1517 826.769V1022.23Z" fill="white"/>
</svg>
