<svg width="100" height="100" viewBox="0 0 100 100" fill="none" xmlns="http://www.w3.org/2000/svg">
<path d="M42 75H41L40.5 74V54L41.5 53L42.5 54V74L42 75Z" stroke="white"/>
<path d="M59 75H58L57.5 74V54L58.5 53L59.5 54V74L59 75Z" stroke="white"/>
<path d="M50 85L51.5 83V49H97.5L98.5 50L97.5 51H53.5V83L50.5 88.5H50M50 85V88.5M50 85L48.5 83V49H2.5L1.5 50L2.5 51H46.5V83L49.5 88.5H50" stroke="white"/>
<path d="M69.5 47.25C69.5 42.4098 67.4455 37.7678 63.7886 34.3453C60.1316 30.9228 55.1717 29 50 29C44.8283 29 39.8684 30.9228 36.2114 34.3453C32.5545 37.7678 30.5 42.4098 30.5 47.25L50 47.25H69.5Z" stroke="white"/>
<path d="M28 46.5L29 45.5L28 44.5H17L16 45.5L17 46.5H28Z" stroke="white"/>
<path d="M72 46.5L71 45.5L72 44.5H83L84 45.5L83 46.5H72Z" stroke="white"/>
<path d="M29.3108 37.9399L30.6173 37.3987L30.0761 36.0922L19.9134 31.8827L18.6069 32.4238L19.1481 33.7304L29.3108 37.9399Z" stroke="white"/>
<path d="M70.6892 37.9399L69.3827 37.3987L69.9239 36.0922L80.0866 31.8827L81.3931 32.4238L80.8519 33.7304L70.6892 37.9399Z" stroke="white"/>
<path d="M33.8787 30.3995H35.2929V28.9853L27.5147 21.2071H26.1005V22.6213L33.8787 30.3995Z" stroke="white"/>
<path d="M66.1213 30.3995H64.7071V28.9853L72.4853 21.2071H73.8995V22.6213L66.1213 30.3995Z" stroke="white"/>
<path d="M33.8787 30.3995H35.2929V28.9853L27.5147 21.2071H26.1005V22.6213L33.8787 30.3995Z" stroke="white"/>
<path d="M66.1213 30.3995H64.7071V28.9853L72.4853 21.2071H73.8995V22.6213L66.1213 30.3995Z" stroke="white"/>
<path d="M40.7696 25.3519L42.0761 25.8931L42.6173 24.5866L38.4078 14.4239L37.1012 13.8827L36.56 15.1892L40.7696 25.3519Z" stroke="white"/>
<path d="M59.2304 25.3519L57.9239 25.8931L57.3827 24.5866L61.5922 14.4239L62.8988 13.8827L63.44 15.1892L59.2304 25.3519Z" stroke="white"/>
<path d="M51 23.5L50 24.5L49 23.5V12.5L50 11.5L51 12.5V23.5Z" stroke="white"/>
</svg>
