<svg width="3720" height="1383" viewBox="0 0 3720 1383" fill="none" xmlns="http://www.w3.org/2000/svg">
<path d="M2731 1104.81L2713.5 1090.96L2696 1104.02V759.46L2713.5 741.46L2731 759.46V1104.81Z" fill="white"/>
<path d="M2731 760.46H2713.5H2696V1114.46L2713.5 1132.46L2731 1114.46V760.46Z" fill="white"/>
<path d="M3017 1104.81L2999.5 1090.96L2982 1104.02V759.46L2999.5 741.46L3017 759.46V1104.81Z" fill="white"/>
<path d="M3017 760.46H2999.5H2982V1114.46L2999.5 1132.46L3017 1114.46V760.46Z" fill="white"/>
<path d="M2919 1283.46L2865 1382.46H2856.5H2848L2794 1283.46V707.46H2010.8L1993 689.46L2010.8 671.46H2830L2830 1283.46L2856.5 1319.46L2883 1283.46L2883 671.516L3702 671.46L3720 689.46L3702 707.46H2919V1283.46Z" fill="white"/>
<path d="M2856.5 290.46C3036.33 290.46 3182.92 432.798 3189.75 610.96H2523.25C2530.08 432.798 2676.67 290.46 2856.5 290.46Z" stroke="white" stroke-width="26"/>
<path d="M3203 624.42H2856.5H2510C2510 433.053 2665.13 277.92 2856.5 277.92C3047.87 277.92 3203 433.053 3203 624.42Z" stroke="white" stroke-width="20"/>
<path d="M2269.77 633.917L2252 616.417L2269.77 598.917H2465.23L2483 616.417L2465.23 633.917H2269.77Z" fill="white"/>
<path d="M3443.23 633.917L3461 616.417L3443.23 598.917H3247.77L3230 616.417L3247.77 633.917H3443.23Z" fill="white"/>
<path d="M2307.73 408.053L2298.01 385.085L2321.13 375.717L2501.71 450.517L2511.43 473.485L2488.32 482.853L2307.73 408.053Z" fill="white"/>
<path d="M2429.24 213.91L2429.05 188.971L2453.99 189.161L2592.2 327.374L2592.4 352.313L2567.46 352.122L2429.24 213.91Z" fill="white"/>
<path d="M2615.8 81.0454L2625.17 57.9318L2648.14 67.6515L2722.94 248.234L2713.57 271.348L2690.6 261.628L2615.8 81.0454Z" fill="white"/>
<path d="M3405.27 408.053L3414.99 385.085L3391.87 375.717L3211.29 450.517L3201.57 473.485L3224.68 482.853L3405.27 408.053Z" fill="white"/>
<path d="M3283.76 213.91L3283.95 188.971L3259.01 189.161L3120.79 327.374L3120.6 352.313L3145.54 352.122L3283.76 213.91Z" fill="white"/>
<path d="M3097.2 81.0454L3087.83 57.9318L3064.86 67.6515L2990.06 248.234L2999.43 271.348L3022.4 261.628L3097.2 81.0454Z" fill="white"/>
<path d="M2874 213.231L2856.5 231L2839 213.231V17.7692L2856.5 3.92106e-06L2874 17.7692V213.231Z" fill="white"/>
<path d="M228.869 417.9C228.569 413.1 228.419 405.9 228.419 396.3V379.2C228.419 367.8 228.119 359.25 227.519 353.55C226.919 348.75 226.619 336.3 226.619 316.2C226.619 309 228.719 303.45 232.919 299.55C237.419 295.35 243.419 293.25 250.919 293.25C260.519 293.25 266.969 295.35 270.269 299.55C273.569 303.75 275.219 310.65 275.219 320.25V337.35L274.769 386.85C274.469 396.45 274.319 410.85 274.319 430.05L274.769 466.95C275.069 472.65 275.219 480.6 275.219 490.8C275.219 498.9 275.519 510.45 276.119 525.45C276.719 539.25 277.019 549.6 277.019 556.5C277.019 562.2 275.369 567.45 272.069 572.25C269.069 577.05 264.869 579.45 259.469 579.45C238.469 579.45 227.969 572.4 227.969 558.3C227.969 550.5 228.269 541.8 228.869 532.2C229.469 525.3 229.769 514.8 229.769 500.7C229.769 490.8 229.469 476.55 228.869 457.95C214.769 459.15 190.469 459.75 155.969 459.75C134.369 459.75 117.569 459.75 105.569 459.75C93.5686 459.45 84.8686 458.7 79.4686 457.5L79.0186 509.25C79.0186 512.55 79.7686 521.4 81.2686 535.8C82.7686 545.4 83.5186 553.8 83.5186 561C83.5186 565.5 80.8186 569.85 75.4186 574.05C70.3186 577.95 65.5186 579.9 61.0186 579.9C50.2186 579.9 42.8686 577.35 38.9686 572.25C35.0686 566.85 33.1186 558.75 33.1186 547.95L32.6686 512.4C32.3686 508.2 32.2186 502.35 32.2186 494.85C32.2186 483.75 31.9186 468.6 31.3186 449.4C30.7186 432 30.4186 419.4 30.4186 411.6C30.4186 399.9 30.7186 383.55 31.3186 362.55C31.9186 342.75 32.2186 328.05 32.2186 318.45C32.2186 308.85 34.6186 302.4 39.4186 299.1C44.2186 295.8 49.6186 294.15 55.6186 294.15C72.4186 294.15 80.8186 299.7 80.8186 310.8C80.8186 330.6 80.3686 349.5 79.4686 367.5C78.8686 390.3 78.5686 406.95 78.5686 417.45C87.2686 419.55 96.4186 420.9 106.019 421.5C115.619 422.1 129.119 422.4 146.519 422.4C181.919 422.4 209.369 420.9 228.869 417.9ZM476.991 292.8C497.091 292.8 515.391 295.35 531.891 300.45C548.391 305.25 561.891 312.45 572.391 322.05C591.291 339.15 604.491 357.9 611.991 378.3C619.791 398.4 623.691 424.2 623.691 455.7C623.691 462.3 622.791 468.3 620.991 473.7C619.491 479.1 616.941 486 613.341 494.4C608.841 503.7 606.141 511.05 605.241 516.45C599.241 526.95 589.341 537 575.541 546.6C562.041 556.2 547.341 564 531.441 570C515.541 576 501.591 579 489.591 579C431.691 579 390.441 559.2 365.841 519.6C358.941 508.5 353.541 496.95 349.641 484.95C346.041 472.95 344.241 461.25 344.241 449.85C344.241 419.25 349.641 392.7 360.441 370.2C371.541 347.4 386.841 329.7 406.341 317.1C418.041 310.2 430.191 304.5 442.791 300C455.691 295.2 467.091 292.8 476.991 292.8ZM391.041 451.2C391.041 467.4 394.641 480.75 401.841 491.25C409.341 501.75 420.741 513.15 436.041 525.45C448.641 530.25 457.191 533.4 461.691 534.9C466.191 536.1 471.291 536.7 476.991 536.7C507.291 536.7 531.441 528.45 549.441 511.95C567.441 495.45 576.441 472.8 576.441 444C576.441 421.2 573.891 403.2 568.791 390C563.691 376.8 554.541 364.95 541.341 354.45C534.441 348.75 525.591 344.55 514.791 341.85C504.291 339.15 492.891 337.8 480.591 337.8C461.991 337.8 445.941 343.35 432.441 354.45C418.941 365.25 408.591 379.35 401.391 396.75C394.491 414.15 391.041 432.3 391.041 451.2ZM917.815 536.7C922.315 536.7 925.915 538.65 928.615 542.55C931.615 546.45 933.115 550.65 933.115 555.15C933.115 562.95 930.115 568.95 924.115 573.15C918.415 577.05 910.915 579 901.615 579C887.815 579 876.715 576.6 868.315 571.8C859.915 567 852.415 558 845.815 544.8C843.715 540 841.165 532.2 838.165 521.4C835.465 510.6 832.615 502.05 829.615 495.75C826.915 489.15 822.265 483.6 815.665 479.1C809.365 474.6 800.665 472.2 789.565 471.9L779.665 472.35C769.465 472.95 761.815 473.25 756.715 473.25C750.715 473.25 745.015 472.8 739.615 471.9C740.215 511.5 740.515 541.8 740.515 562.8C740.515 568.2 737.815 572.7 732.415 576.3C727.315 579.9 721.465 581.7 714.865 581.7C707.065 581.7 700.915 578.7 696.415 572.7C692.815 565.5 691.015 554.85 691.015 540.75C691.015 535.95 691.315 529.05 691.915 520.05L692.365 500.25C692.365 481.95 693.115 462.3 694.615 441.3C695.815 417.3 696.415 399.75 696.415 388.65C696.415 379.35 695.515 366.9 693.715 351.3C693.415 348.3 692.965 343.5 692.365 336.9C691.765 330 691.465 323.85 691.465 318.45C691.465 314.55 693.115 310.95 696.415 307.65C699.715 304.35 703.015 302.25 706.315 301.35C730.915 297.45 755.215 295.5 779.215 295.5C818.215 295.5 850.165 302.85 875.065 317.55C899.965 332.25 912.415 354.75 912.415 385.05C912.415 394.05 910.015 403.5 905.215 413.4C900.715 423 895.015 430.5 888.115 435.9C876.415 446.1 863.815 452.7 850.315 455.7C850.915 456.3 854.215 459.3 860.215 464.7C866.215 470.1 870.265 475.8 872.365 481.8L878.215 499.8C883.315 514.5 887.365 524.7 890.365 530.4C893.365 535.8 897.265 538.5 902.065 538.5C906.565 538.5 909.265 538.2 910.165 537.6C911.365 537 913.915 536.7 917.815 536.7ZM739.165 433.65C748.165 434.25 754.465 434.55 758.065 434.55C763.465 434.55 770.965 434.25 780.565 433.65L801.715 433.2C811.015 433.2 820.615 431.1 830.515 426.9C840.415 422.7 848.665 416.85 855.265 409.35C861.865 401.55 865.165 392.85 865.165 383.25C865.165 366.15 858.265 353.7 844.465 345.9C830.665 338.1 809.215 334.2 780.115 334.2C769.015 334.2 755.965 335.7 740.965 338.7C741.565 349.5 741.865 357.3 741.865 362.1C741.865 367.8 741.565 376.35 740.965 387.75L740.515 400.8C739.615 413.4 739.165 424.35 739.165 433.65ZM1006.97 580.35C997.968 580.35 991.668 577.65 988.068 572.25C984.768 566.85 983.118 559.2 983.118 549.3L983.568 490.8L983.118 481.8C981.618 453.3 980.868 429.75 980.868 411.15L982.668 357.6L983.118 330.6C983.118 321.6 983.418 314.7 984.018 309.9C984.618 305.1 986.568 301.2 989.868 298.2C993.168 295.2 998.418 293.7 1005.62 293.7C1014.62 293.7 1021.07 295.95 1024.97 300.45C1028.87 304.65 1030.82 312 1030.82 322.5L1030.37 331.95C1029.17 355.95 1028.57 374.1 1028.57 386.4C1028.57 399.9 1028.87 415.8 1029.47 434.1C1030.07 452.1 1030.52 464.85 1030.82 472.35C1032.32 504.45 1033.07 532.05 1033.07 555.15C1033.07 564.15 1031.12 570.6 1027.22 574.5C1023.62 578.4 1016.87 580.35 1006.97 580.35ZM1122.96 570.9C1109.76 569.7 1100.91 566.55 1096.41 561.45C1091.91 556.05 1089.66 550.5 1089.66 544.8C1089.66 541.2 1090.41 537.15 1091.91 532.65C1093.41 528.15 1094.91 525 1096.41 523.2C1110.51 505.8 1136.91 475.2 1175.61 431.4C1214.31 387.6 1240.26 358.35 1253.46 343.65L1235.91 342.75C1220.01 341.85 1206.66 341.4 1195.86 341.4C1191.96 341.4 1182.06 342.15 1166.16 343.65C1156.26 345.15 1147.26 345.9 1139.16 345.9C1127.46 345.9 1118.91 344.85 1113.51 342.75C1108.41 340.35 1105.26 337.65 1104.06 334.65C1103.16 331.65 1102.71 327.45 1102.71 322.05C1102.71 318.15 1104.21 314.25 1107.21 310.35C1110.51 306.15 1114.41 303.75 1118.91 303.15C1130.91 301.65 1146.96 300.3 1167.06 299.1C1187.16 297.6 1203.51 296.85 1216.11 296.85C1254.21 296.85 1281.06 298.8 1296.66 302.7C1300.56 303.9 1303.86 306.9 1306.56 311.7C1309.26 316.5 1310.61 320.25 1310.61 322.95C1310.61 326.55 1310.01 330.3 1308.81 334.2C1307.91 338.1 1306.56 341.4 1304.76 344.1C1300.86 351 1291.86 363.6 1277.76 381.9C1263.66 399.9 1248.66 418.05 1232.76 436.35C1215.96 456.15 1198.71 475.8 1181.01 495.3C1163.61 514.8 1152.36 527.25 1147.26 532.65C1155.66 532.35 1168.56 531.6 1185.96 530.4C1214.16 528.6 1235.31 527.7 1249.41 527.7C1260.51 527.7 1272.81 528.45 1286.31 529.95C1300.11 531.45 1310.46 534.45 1317.36 538.95C1319.46 540.15 1321.41 543.6 1323.21 549.3C1325.31 555 1326.36 559.65 1326.36 563.25C1326.36 567.15 1324.41 570.6 1320.51 573.6C1316.91 576.6 1311.81 578.1 1305.21 578.1C1304.61 578.1 1298.01 577.5 1285.41 576.3C1259.31 573.3 1242.06 571.8 1233.66 571.8L1201.71 572.25C1187.31 572.85 1176.36 573.15 1168.86 573.15C1150.56 573.15 1135.26 572.4 1122.96 570.9ZM1507.86 292.8C1527.06 292.8 1543.56 295.2 1557.36 300C1571.46 304.8 1583.91 312.15 1594.71 322.05C1613.61 339.15 1626.81 357.9 1634.31 378.3C1642.11 398.4 1646.01 424.2 1646.01 455.7C1646.01 463.5 1644.96 470.85 1642.86 477.75C1640.76 484.35 1637.61 492.45 1633.41 502.05L1627.56 516.45C1623.36 527.85 1614.66 538.5 1601.46 548.4C1588.26 558 1573.41 565.65 1556.91 571.35C1540.41 577.05 1525.41 579.9 1511.91 579.9C1484.31 579.9 1460.16 575.4 1439.46 566.4C1419.06 557.1 1402.11 542.55 1388.61 522.75C1381.71 512.25 1376.31 500.55 1372.41 487.65C1368.51 474.45 1366.56 461.85 1366.56 449.85C1366.56 419.25 1371.96 392.7 1382.76 370.2C1393.86 347.4 1409.16 329.7 1428.66 317.1C1439.76 310.5 1452.96 304.8 1468.26 300C1483.86 295.2 1497.06 292.8 1507.86 292.8ZM1414.26 449.85C1414.26 465.45 1418.01 480 1425.51 493.5C1433.31 506.7 1443.66 517.2 1456.56 525C1469.76 532.8 1484.16 536.7 1499.76 536.7C1531.86 536.7 1556.31 528.6 1573.11 512.4C1590.21 496.2 1598.76 473.4 1598.76 444C1598.76 421.2 1596.21 403.2 1591.11 390C1586.01 376.8 1576.86 364.95 1563.66 354.45C1556.46 348.45 1548.66 344.25 1540.26 341.85C1532.16 339.15 1522.56 337.8 1511.46 337.8C1492.26 337.8 1475.31 342.6 1460.61 352.2C1445.91 361.8 1434.51 375.15 1426.41 392.25C1418.31 409.35 1414.26 428.55 1414.26 449.85ZM1900.57 326.1C1900.57 317.4 1902.52 309.9 1906.42 303.6C1910.62 297 1916.77 293.7 1924.87 293.7C1931.77 293.7 1937.92 295.05 1943.32 297.75C1948.72 300.45 1951.42 304.95 1951.42 311.25C1951.42 323.55 1950.82 340.8 1949.62 363C1948.42 384.6 1947.82 400.65 1947.82 411.15C1947.82 427.65 1948.42 449.7 1949.62 477.3C1950.82 503.7 1951.42 523.05 1951.42 535.35C1951.42 545.25 1951.27 552.6 1950.97 557.4C1950.97 562.2 1948.27 567 1942.87 571.8C1937.77 576.3 1929.82 578.55 1919.02 578.55C1913.32 578.55 1908.37 577.65 1904.17 575.85C1900.27 573.75 1897.57 571.5 1896.07 569.1C1881.97 552 1861.42 522.9 1834.42 481.8C1804.12 435.9 1779.37 400.8 1760.17 376.5C1762.57 398.1 1763.77 424.5 1763.77 455.7C1763.77 469.5 1763.47 487.5 1762.87 509.7C1762.57 531.6 1761.97 546 1761.07 552.9C1759.87 561.6 1757.17 568.35 1752.97 573.15C1749.07 577.65 1742.77 579.9 1734.07 579.9C1727.47 579.9 1722.52 578.1 1719.22 574.5C1716.22 570.6 1714.42 564 1713.82 554.7C1713.52 542.4 1714.27 523.95 1716.07 499.35C1716.37 495.45 1716.82 488.7 1717.42 479.1C1718.02 469.5 1718.32 460.95 1718.32 453.45C1718.32 432.75 1717.27 409.05 1715.17 382.35C1713.37 352.95 1712.47 331.2 1712.47 317.1C1712.47 309.9 1715.02 304.35 1720.12 300.45C1725.52 296.55 1731.67 294.6 1738.57 294.6C1744.57 294.6 1750.87 296.1 1757.47 299.1C1783.27 331.5 1818.22 379.8 1862.32 444L1904.62 508.8C1904.92 504 1905.07 497.25 1905.07 488.55C1905.07 473.25 1904.77 456.75 1904.17 439.05C1903.57 421.35 1903.12 409.35 1902.82 403.05C1901.32 373.95 1900.57 348.3 1900.57 326.1ZM633.412 1112.25C629.512 1107.15 626.212 1101.6 623.512 1095.6C620.812 1089.3 617.962 1081.8 614.962 1073.1C614.362 1071.6 612.562 1067.1 609.562 1059.6C606.862 1052.1 603.712 1045.65 600.112 1040.25C581.212 1042.95 565.762 1044.3 553.762 1044.3C547.162 1044.3 539.812 1044.15 531.712 1043.85C523.912 1043.25 518.062 1042.95 514.162 1042.95C499.162 1041.75 487.162 1041.15 478.162 1041.15C474.562 1045.95 471.412 1051.05 468.712 1056.45C466.312 1061.85 463.162 1069.95 459.262 1080.75C453.862 1096.35 449.212 1107.45 445.312 1114.05C442.612 1118.55 437.362 1120.8 429.562 1120.8C422.962 1120.8 416.812 1119.45 411.112 1116.75C405.712 1113.75 403.012 1109.7 403.012 1104.6C405.412 1093.2 409.162 1081.2 414.262 1068.6C419.662 1055.7 427.312 1038.6 437.212 1017.3L455.212 973.2C465.112 948 474.112 926.4 482.212 908.4C490.612 890.4 501.562 869.1 515.062 844.5C516.862 840.9 519.862 837.9 524.062 835.5C528.262 832.8 532.912 831.45 538.012 831.45C543.712 831.45 547.762 831.9 550.162 832.8C552.862 833.4 554.962 834.6 556.462 836.4C557.962 837.9 560.212 841.2 563.212 846.3C573.412 862.2 582.112 878.55 589.312 895.35C596.812 912.15 606.262 935.4 617.662 965.1L627.112 988.95C635.512 1010.55 642.712 1028.7 648.712 1043.4C655.012 1057.8 661.912 1071 669.412 1083C674.212 1090.8 676.612 1096.2 676.612 1099.2C676.612 1106.4 674.362 1111.95 669.862 1115.85C665.662 1119.45 660.112 1121.25 653.212 1121.25C644.512 1121.25 637.912 1118.25 633.412 1112.25ZM587.062 1003.35C582.262 993.15 575.362 975.45 566.362 950.25C557.062 923.25 547.762 901.8 538.462 885.9C532.762 900.3 524.362 918.9 513.262 941.7C505.762 955.8 497.212 976.2 487.612 1002.9C506.812 1005.3 527.512 1006.5 549.712 1006.5C565.612 1006.5 578.062 1005.45 587.062 1003.35ZM954.553 1076.7C959.053 1076.7 962.653 1078.65 965.353 1082.55C968.353 1086.45 969.853 1090.65 969.853 1095.15C969.853 1102.95 966.853 1108.95 960.853 1113.15C955.153 1117.05 947.653 1119 938.353 1119C924.553 1119 913.453 1116.6 905.053 1111.8C896.653 1107 889.153 1098 882.553 1084.8C880.453 1080 877.903 1072.2 874.903 1061.4C872.203 1050.6 869.353 1042.05 866.353 1035.75C863.653 1029.15 859.003 1023.6 852.403 1019.1C846.103 1014.6 837.403 1012.2 826.303 1011.9L816.403 1012.35C806.203 1012.95 798.553 1013.25 793.453 1013.25C787.453 1013.25 781.753 1012.8 776.353 1011.9C776.953 1051.5 777.253 1081.8 777.253 1102.8C777.253 1108.2 774.553 1112.7 769.153 1116.3C764.053 1119.9 758.203 1121.7 751.603 1121.7C743.803 1121.7 737.653 1118.7 733.153 1112.7C729.553 1105.5 727.753 1094.85 727.753 1080.75C727.753 1075.95 728.053 1069.05 728.653 1060.05L729.103 1040.25C729.103 1021.95 729.853 1002.3 731.353 981.3C732.553 957.3 733.153 939.75 733.153 928.65C733.153 919.35 732.253 906.9 730.453 891.3C730.153 888.3 729.703 883.5 729.103 876.9C728.503 870 728.203 863.85 728.203 858.45C728.203 854.55 729.853 850.95 733.153 847.65C736.453 844.35 739.753 842.25 743.053 841.35C767.653 837.45 791.953 835.5 815.953 835.5C854.953 835.5 886.903 842.85 911.803 857.55C936.703 872.25 949.153 894.75 949.153 925.05C949.153 934.05 946.753 943.5 941.953 953.4C937.453 963 931.753 970.5 924.853 975.9C913.153 986.1 900.553 992.7 887.053 995.7C887.653 996.3 890.953 999.3 896.953 1004.7C902.953 1010.1 907.003 1015.8 909.103 1021.8L914.953 1039.8C920.053 1054.5 924.103 1064.7 927.103 1070.4C930.103 1075.8 934.003 1078.5 938.803 1078.5C943.303 1078.5 946.003 1078.2 946.903 1077.6C948.103 1077 950.653 1076.7 954.553 1076.7ZM775.903 973.65C784.903 974.25 791.203 974.55 794.803 974.55C800.203 974.55 807.703 974.25 817.303 973.65L838.453 973.2C847.753 973.2 857.353 971.1 867.253 966.9C877.153 962.7 885.403 956.85 892.003 949.35C898.603 941.55 901.903 932.85 901.903 923.25C901.903 906.15 895.003 893.7 881.203 885.9C867.403 878.1 845.953 874.2 816.853 874.2C805.753 874.2 792.703 875.7 777.703 878.7C778.303 889.5 778.603 897.3 778.603 902.1C778.603 907.8 778.303 916.35 777.703 927.75L777.253 940.8C776.353 953.4 775.903 964.35 775.903 973.65ZM1237.21 869.25C1241.71 874.65 1244.86 879 1246.66 882.3C1248.46 885.6 1249.36 888.75 1249.36 891.75C1249.36 895.35 1246.96 899.55 1242.16 904.35C1237.66 909.15 1233.16 911.55 1228.66 911.55C1222.66 911.55 1217.86 910.65 1214.26 908.85C1210.66 907.05 1207.66 904.2 1205.26 900.3C1203.46 897.6 1199.26 894.15 1192.66 889.95C1186.06 885.45 1178.56 881.7 1170.16 878.7C1161.76 875.4 1153.96 873.75 1146.76 873.75C1135.06 873.75 1122.91 876.6 1110.31 882.3C1098.01 887.7 1088.11 894.75 1080.61 903.45C1074.31 911.25 1068.61 922.95 1063.51 938.55C1058.41 953.85 1055.86 968.4 1055.86 982.2C1055.86 999.6 1059.61 1015.65 1067.11 1030.35C1074.91 1044.75 1086.01 1056.3 1100.41 1065C1115.11 1073.7 1132.66 1078.05 1153.06 1078.05C1164.16 1078.05 1173.61 1076.4 1181.41 1073.1C1189.51 1069.8 1198.21 1065 1207.51 1058.7C1214.71 1054.2 1220.26 1050.9 1224.16 1048.8C1228.36 1046.7 1233.01 1045.65 1238.11 1045.65C1242.91 1045.65 1247.41 1047.75 1251.61 1051.95C1256.11 1056.15 1258.36 1060.35 1258.36 1064.55C1258.36 1072.35 1253.71 1080.15 1244.41 1087.95C1233.01 1097.25 1222.51 1104.3 1212.91 1109.1C1203.31 1113.6 1193.41 1116.6 1183.21 1118.1C1173.31 1119.3 1160.56 1119.9 1144.96 1119.9C1124.26 1119.9 1103.26 1114.95 1081.96 1105.05C1060.96 1095.15 1044.76 1083.15 1033.36 1069.05C1027.36 1060.35 1021.51 1047.9 1015.81 1031.7C1010.41 1015.2 1007.71 1001.85 1007.71 991.65C1007.71 966.15 1012.06 941.55 1020.76 917.85C1029.46 894.15 1041.91 875.1 1058.11 860.7C1068.91 850.8 1082.26 843.6 1098.16 839.1C1114.36 834.3 1129.96 831.9 1144.96 831.9C1164.16 831.9 1180.66 835.05 1194.46 841.35C1208.56 847.65 1222.81 856.95 1237.21 869.25ZM1516.47 957.9C1516.17 953.1 1516.02 945.9 1516.02 936.3V919.2C1516.02 907.8 1515.72 899.25 1515.12 893.55C1514.52 888.75 1514.22 876.3 1514.22 856.2C1514.22 849 1516.32 843.45 1520.52 839.55C1525.02 835.35 1531.02 833.25 1538.52 833.25C1548.12 833.25 1554.57 835.35 1557.87 839.55C1561.17 843.75 1562.82 850.65 1562.82 860.25V877.35L1562.37 926.85C1562.07 936.45 1561.92 950.85 1561.92 970.05L1562.37 1006.95C1562.67 1012.65 1562.82 1020.6 1562.82 1030.8C1562.82 1038.9 1563.12 1050.45 1563.72 1065.45C1564.32 1079.25 1564.62 1089.6 1564.62 1096.5C1564.62 1102.2 1562.97 1107.45 1559.67 1112.25C1556.67 1117.05 1552.47 1119.45 1547.07 1119.45C1526.07 1119.45 1515.57 1112.4 1515.57 1098.3C1515.57 1090.5 1515.87 1081.8 1516.47 1072.2C1517.07 1065.3 1517.37 1054.8 1517.37 1040.7C1517.37 1030.8 1517.07 1016.55 1516.47 997.95C1502.37 999.15 1478.07 999.75 1443.57 999.75C1421.97 999.75 1405.17 999.75 1393.17 999.75C1381.17 999.45 1372.47 998.7 1367.07 997.5L1366.62 1049.25C1366.62 1052.55 1367.37 1061.4 1368.87 1075.8C1370.37 1085.4 1371.12 1093.8 1371.12 1101C1371.12 1105.5 1368.42 1109.85 1363.02 1114.05C1357.92 1117.95 1353.12 1119.9 1348.62 1119.9C1337.82 1119.9 1330.47 1117.35 1326.57 1112.25C1322.67 1106.85 1320.72 1098.75 1320.72 1087.95L1320.27 1052.4C1319.97 1048.2 1319.82 1042.35 1319.82 1034.85C1319.82 1023.75 1319.52 1008.6 1318.92 989.4C1318.32 972 1318.02 959.4 1318.02 951.6C1318.02 939.9 1318.32 923.55 1318.92 902.55C1319.52 882.75 1319.82 868.05 1319.82 858.45C1319.82 848.85 1322.22 842.4 1327.02 839.1C1331.82 835.8 1337.22 834.15 1343.22 834.15C1360.02 834.15 1368.42 839.7 1368.42 850.8C1368.42 870.6 1367.97 889.5 1367.07 907.5C1366.47 930.3 1366.17 946.95 1366.17 957.45C1374.87 959.55 1384.02 960.9 1393.62 961.5C1403.22 962.1 1416.72 962.4 1434.12 962.4C1469.52 962.4 1496.97 960.9 1516.47 957.9Z" fill="white"/>
</svg>
