<svg width="100" height="100" viewBox="0 0 100 100" fill="none" xmlns="http://www.w3.org/2000/svg">
<path d="M32.0714 35.25L32.0714 80.4554C32.0714 80.5998 32.1288 80.7383 32.2309 80.8405C32.3331 80.9426 32.4716 81 32.6161 81H46.2417C46.4044 81.0001 46.5651 80.9636 46.7119 80.8935C46.8587 80.8233 46.9879 80.7211 47.0901 80.5944C47.1922 80.4677 47.2647 80.3197 47.3021 80.1614C47.3395 80.003 47.341 79.8382 47.3064 79.6792L43.061 63.5714H46.2321C46.521 63.5714 46.7981 63.4567 47.0024 63.2524C47.2067 63.0481 47.3214 62.771 47.3214 62.4821V35.25H32.0714Z" fill="#CACACA"/>
<path d="M76.212 41.0436L75.6429 40.9007V20.5446C75.6429 20.4002 75.5855 20.2617 75.4833 20.1595C75.3812 20.0574 75.2427 20 75.0982 20H69.3114C69.1795 20.0005 69.0522 20.0489 68.9533 20.1362L51.6786 35.25L51.6786 57.0357L68.9533 72.1496C69.0522 72.2368 69.1795 72.2852 69.3114 72.2857H75.0982C75.2427 72.2857 75.3812 72.2283 75.4833 72.1262C75.5855 72.0241 75.6429 71.8855 75.6429 71.7411V51.385L76.212 51.2421C77.5219 50.8867 80 49.3658 80 46.1429C80 42.9199 77.5219 41.399 76.212 41.0436Z" fill="#CACACA"/>
<path d="M27.7143 35.25H21.7232C21.5788 35.25 21.4402 35.3074 21.3381 35.4095C21.236 35.5117 21.1786 35.6502 21.1786 35.7946L21.1786 40.6406C20.9724 40.8242 20.7795 41.0221 20.6012 41.2329C19.8714 42.1016 19 43.6566 19 46.1429C19 48.8919 20.0743 50.6539 21.1786 51.6465V56.4911C21.1786 56.6355 21.236 56.7741 21.3381 56.8762C21.4402 56.9783 21.5788 57.0357 21.7232 57.0357H27.7143L27.7143 35.25Z" fill="#CACACA"/>
</svg>
