<svg xmlns="http://www.w3.org/2000/svg" fill="none" viewBox="0 0 214 35">
    <path fill="#3DABE1" d="M6 27.5a3 3 0 0 1-3-3c0-.6.18-1.16.5-1.63L9 13.31V11.5a1 1 0 0 1-1-1v-1a2 2 0 0 1 2-2h4a2 2 0 0 1 2 2v1a1 1 0 0 1-1 1v1.81l5.5 9.56c.32.47.5 1.03.5 1.63a3 3 0 0 1-3 3H6Zm-1-3a1 1 0 0 0 1 1h12a1 1 0 0 0 .82-1.57l-2.29-3.96L14 22.5l-5.07-5.07-3.75 6.5c-.11.16-.18.36-.18.57Zm8-9a1 1 0 1 0 0 2 1 1 0 0 0 0-2Z"/>
    <path fill="#fff" d="M35.912 24.056c1.116 0 1.953-.243 2.511-.729a2.331 2.331 0 0 0 .837-1.836c0-.648-.216-1.179-.648-1.593-.432-.414-1.098-.756-1.998-1.026l-2.052-.621c-.828-.252-1.548-.567-2.16-.945a4.186 4.186 0 0 1-1.431-1.431c-.342-.576-.513-1.269-.513-2.079 0-1.422.522-2.538 1.566-3.348 1.062-.828 2.484-1.242 4.266-1.242.99 0 1.872.108 2.646.324.792.198 1.404.468 1.836.81.45.342.675.729.675 1.161 0 .288-.072.549-.216.783a1.81 1.81 0 0 1-.567.54c-.432-.342-1.017-.639-1.755-.891s-1.548-.378-2.43-.378c-.972 0-1.737.207-2.295.621-.558.396-.837.936-.837 1.62 0 .54.198.981.594 1.323.396.324 1.017.612 1.863.864l1.593.486c1.494.432 2.655 1.044 3.483 1.836.846.774 1.269 1.836 1.269 3.186 0 1.458-.54 2.637-1.62 3.537-1.08.9-2.61 1.35-4.59 1.35-1.098 0-2.07-.126-2.916-.378-.828-.234-1.476-.54-1.944-.918-.468-.396-.702-.819-.702-1.269 0-.36.108-.657.324-.891.216-.252.459-.441.729-.567.45.396 1.044.783 1.782 1.161.756.36 1.656.54 2.7.54Zm13.544-12.123-.108-2.349h6.966c.072.108.144.27.216.486.072.198.108.405.108.621 0 .396-.1.702-.297.918-.18.216-.432.324-.756.324h-6.13Zm1.296-2.349.08 2.349h-6.965a2.12 2.12 0 0 1-.324-1.134c0-.396.09-.693.27-.891.198-.216.459-.324.783-.324h6.156Zm-2.08 1.62h2.809v14.742a5.695 5.695 0 0 1-.54.135 3.599 3.599 0 0 1-.756.081c-.522 0-.91-.099-1.161-.297-.234-.216-.351-.558-.351-1.026V11.204Zm15.72.648h-.134a92.706 92.706 0 0 1-.864 2.457c-.324.918-.657 1.881-1 2.889-.341.99-.665 1.926-.971 2.808l-.243 1.08c-.108.324-.234.711-.378 1.161-.144.45-.297.918-.46 1.404-.143.468-.287.909-.431 1.323-.144.414-.252.765-.324 1.053a4.269 4.269 0 0 1-.513.135 1.999 1.999 0 0 1-.621.081c-.432 0-.792-.099-1.08-.297-.288-.198-.432-.495-.432-.891 0-.18.027-.36.08-.54.073-.198.145-.414.217-.648.198-.612.45-1.359.756-2.241.306-.9.648-1.872 1.026-2.916.378-1.044.765-2.097 1.16-3.159.397-1.08.775-2.115 1.135-3.105.378-.99.71-1.854.999-2.592.18-.09.459-.18.837-.27a4.11 4.11 0 0 1 1.134-.162c.504 0 .963.072 1.377.216.432.144.702.387.81.729a62.87 62.87 0 0 1 1.296 3.483c.468 1.296.936 2.646 1.404 4.05.486 1.404.945 2.772 1.377 4.104.432 1.332.819 2.538 1.16 3.618-.143.18-.35.324-.62.432-.27.108-.567.162-.891.162-.486 0-.837-.09-1.053-.27-.216-.198-.396-.504-.54-.918l-1.27-3.942-.296-1.269a146.112 146.112 0 0 0-1-2.997 171.97 171.97 0 0 0-.917-2.781l-.73-2.187Zm-4.508 10.017.999-2.268h7.128l.459 2.268h-8.586Zm14.757-6.048h2.835v9.963l-1.323.243c-.45 0-.819-.144-1.107-.432-.27-.288-.405-.657-.405-1.107v-8.667Zm1.512 10.206v-2.376h8.694c.09.108.171.261.243.459.072.198.108.423.108.675 0 .396-.099.702-.297.918-.198.216-.459.324-.783.324h-7.965Zm1.323-7.425h-2.835V9.611c.126-.036.306-.072.54-.108.252-.054.513-.081.783-.081.522 0 .9.099 1.134.297.252.18.378.513.378.999v7.884Zm22.157-7.047c0 .288-.09.549-.27.783-.162.216-.36.387-.594.513a8.803 8.803 0 0 0-1.593-.891c-.612-.27-1.386-.405-2.322-.405-1.043 0-1.98.243-2.808.729-.81.468-1.449 1.17-1.917 2.106-.468.918-.702 2.061-.702 3.429 0 2.052.504 3.6 1.512 4.644 1.027 1.044 2.377 1.566 4.05 1.566.882 0 1.647-.126 2.295-.378.666-.252 1.224-.54 1.674-.864.216.126.406.306.567.54.162.216.243.477.243.783 0 .252-.063.486-.189.702-.125.198-.341.387-.647.567-.397.252-.936.477-1.62.675-.684.216-1.558.324-2.62.324-1.511 0-2.888-.315-4.13-.945-1.242-.63-2.233-1.575-2.97-2.835-.72-1.278-1.08-2.871-1.08-4.779 0-1.89.368-3.474 1.106-4.752.739-1.278 1.72-2.241 2.944-2.889 1.224-.648 2.556-.972 3.996-.972 1.025 0 1.916.117 2.672.351.757.216 1.341.504 1.755.864.433.36.648.738.648 1.134Zm6.372 6.183h2.673c1.188 0 2.124-.261 2.808-.783.684-.522 1.026-1.287 1.026-2.295s-.351-1.773-1.053-2.295-1.728-.783-3.078-.783c-.414 0-.828.018-1.242.054-.414.036-.792.09-1.134.162v5.94Zm2.781 2.268h-5.589V10.88c0-.324.081-.567.243-.729.18-.162.423-.297.729-.405.54-.162 1.197-.279 1.971-.351.774-.09 1.548-.135 2.322-.135 2.304 0 4.032.477 5.184 1.431 1.152.954 1.728 2.268 1.728 3.942 0 1.08-.261 2.025-.783 2.835s-1.269 1.44-2.241 1.89c-.972.432-2.16.648-3.564.648Zm-.189-.783 2.268-.81c.486.594.981 1.215 1.485 1.863.504.648.99 1.278 1.458 1.89.486.594.909 1.143 1.269 1.647.378.486.675.873.891 1.161a1.72 1.72 0 0 1-.621.918 1.54 1.54 0 0 1-.945.324c-.432 0-.774-.099-1.026-.297a5.918 5.918 0 0 1-.729-.837l-4.05-5.859Zm-5.4-.108h2.835v6.831c-.126.036-.306.081-.54.135a3.358 3.358 0 0 1-.756.081c-.54 0-.936-.099-1.188-.297-.234-.216-.351-.558-.351-1.026v-5.724Zm22.209-7.263h-.135a92.706 92.706 0 0 1-.864 2.457c-.324.918-.657 1.881-.999 2.889l-.972 2.808-.243 1.08c-.108.324-.234.711-.378 1.161-.144.45-.297.918-.459 1.404-.144.468-.288.909-.432 1.323-.144.414-.252.765-.324 1.053a4.269 4.269 0 0 1-.513.135 1.999 1.999 0 0 1-.621.081c-.432 0-.792-.099-1.08-.297-.288-.198-.432-.495-.432-.891 0-.18.027-.36.081-.54.072-.198.144-.414.216-.648.198-.612.45-1.359.756-2.241.306-.9.648-1.872 1.026-2.916.378-1.044.765-2.097 1.161-3.159.396-1.08.774-2.115 1.134-3.105.378-.99.711-1.854.999-2.592.18-.09.459-.18.837-.27a4.11 4.11 0 0 1 1.134-.162c.504 0 .963.072 1.377.216.432.144.702.387.81.729a62.87 62.87 0 0 1 1.296 3.483c.468 1.296.936 2.646 1.404 4.05.486 1.404.945 2.772 1.377 4.104.432 1.332.819 2.538 1.161 3.618-.144.18-.351.324-.621.432-.27.108-.567.162-.891.162-.486 0-.837-.09-1.053-.27-.216-.198-.396-.504-.54-.918l-1.269-3.942-.297-1.269a146.112 146.112 0 0 0-.999-2.997 171.97 171.97 0 0 0-.918-2.781l-.729-2.187Zm-4.509 10.017.999-2.268h7.128l.459 2.268h-8.586Zm17.566-2.538-2.808-.027v-8.181c0-.468.135-.837.405-1.107.288-.288.657-.432 1.107-.432.27 0 .522.027.756.081.252.054.432.108.54.162v9.504Zm-1.296-.081v-2.349h8.046c.072.126.135.288.189.486.072.18.108.387.108.621 0 .378-.09.684-.27.918-.18.216-.432.324-.756.324h-7.317Zm0-7.317V9.584h8.991c.072.108.135.27.189.486.072.198.108.405.108.621 0 .396-.09.702-.27.918-.18.216-.441.324-.783.324h-8.235Zm-1.512 4.887h2.835v9.153c-.108.018-.288.054-.54.108a3.358 3.358 0 0 1-.756.081c-.522 0-.909-.099-1.161-.297-.252-.216-.378-.549-.378-.999V16.82Zm18.742-4.887-.108-2.349h6.966c.072.108.144.27.216.486.072.198.108.405.108.621 0 .396-.099.702-.297.918-.18.216-.432.324-.756.324h-6.129Zm1.296-2.349.081 2.349h-6.966a2.12 2.12 0 0 1-.324-1.134c0-.396.09-.693.27-.891.198-.216.459-.324.783-.324h6.156Zm-2.079 1.62h2.808v14.742a5.695 5.695 0 0 1-.54.135 3.599 3.599 0 0 1-.756.081c-.522 0-.909-.099-1.161-.297-.234-.216-.351-.558-.351-1.026V11.204Z"/>
    <path fill="#3DABE1" d="M169.853 15.821h2.835v9.963l-1.323.243c-.45 0-.819-.144-1.107-.432-.27-.288-.405-.657-.405-1.107v-8.667Zm1.512 10.206v-2.376h8.694c.09.108.171.261.243.459.072.198.108.423.108.675 0 .396-.099.702-.297.918-.198.216-.459.324-.783.324h-7.965Zm1.323-7.425h-2.835V9.611c.126-.036.306-.072.54-.108.252-.054.513-.081.783-.081.522 0 .9.099 1.134.297.252.18.378.513.378.999v7.884Zm17.001-6.75h-.135a92.706 92.706 0 0 1-.864 2.457c-.324.918-.657 1.881-.999 2.889l-.972 2.808-.243 1.08c-.108.324-.234.711-.378 1.161-.144.45-.297.918-.459 1.404-.144.468-.288.909-.432 1.323-.144.414-.252.765-.324 1.053a4.269 4.269 0 0 1-.513.135 1.999 1.999 0 0 1-.621.081c-.432 0-.792-.099-1.08-.297-.288-.198-.432-.495-.432-.891 0-.18.027-.36.081-.54.072-.198.144-.414.216-.648.198-.612.45-1.359.756-2.241.306-.9.648-1.872 1.026-2.916.378-1.044.765-2.097 1.161-3.159.396-1.08.774-2.115 1.134-3.105.378-.99.711-1.854.999-2.592.18-.09.459-.18.837-.27a4.11 4.11 0 0 1 1.134-.162c.504 0 .963.072 1.377.216.432.144.702.387.81.729a62.87 62.87 0 0 1 1.296 3.483c.468 1.296.936 2.646 1.404 4.05.486 1.404.945 2.772 1.377 4.104.432 1.332.819 2.538 1.161 3.618-.144.18-.351.324-.621.432-.27.108-.567.162-.891.162-.486 0-.837-.09-1.053-.27-.216-.198-.396-.504-.54-.918l-1.269-3.942-.297-1.269a146.112 146.112 0 0 0-.999-2.997 171.97 171.97 0 0 0-.918-2.781l-.729-2.187Zm-4.509 10.017.999-2.268h7.128l.459 2.268h-8.586Zm23.587-5.427v2.16h-6.966v-2.16h6.966Zm-2.754 2.16.675-1.647c1.314 0 2.403.198 3.267.594.882.378 1.539.9 1.971 1.566.432.666.648 1.422.648 2.268 0 1.674-.612 2.916-1.836 3.726-1.206.81-2.934 1.215-5.184 1.215-.468 0-.954-.018-1.458-.054a10.78 10.78 0 0 1-1.512-.162 11.158 11.158 0 0 1-1.431-.297c-.81-.252-1.215-.729-1.215-1.431v-13.5c0-.324.081-.567.243-.729.18-.18.423-.315.729-.405a10.95 10.95 0 0 1 2.025-.378 25.08 25.08 0 0 1 2.376-.108c2.106 0 3.735.369 4.887 1.107 1.17.738 1.755 1.872 1.755 3.402 0 .792-.207 1.503-.621 2.133-.414.63-1.053 1.125-1.917 1.485-.864.36-1.98.54-3.348.54l-.243-1.485c1.098 0 1.917-.216 2.457-.648.54-.45.81-1.08.81-1.89 0-.792-.315-1.386-.945-1.782-.63-.414-1.566-.621-2.808-.621-.522 0-1.008.018-1.458.054-.432.036-.819.09-1.161.162v12.069c.378.09.828.162 1.35.216.54.036 1.062.054 1.566.054 1.314 0 2.313-.225 2.997-.675.702-.45 1.053-1.143 1.053-2.079 0-.846-.315-1.503-.945-1.971-.612-.486-1.521-.729-2.727-.729Z"/>
</svg>